<svg xmlns="http://www.w3.org/2000/svg" version="1.1" height="112" width="96" viewBox="0 0 96 112" class="diagram" text-anchor="middle" font-family="monospace" font-size="13px" stroke-linecap="round">
<path d="M 26,64 L 26,80" fill="none" stroke="black"/><path d="M 22,64 L 22,80" fill="none" stroke="black"/>
<path d="M 90,32 L 90,80" fill="none" stroke="black"/><path d="M 86,32 L 86,80" fill="none" stroke="black"/>
<rect class="gray" x="76" y="72" width="8" height="16" fill="rgb(0,0,0)"/>
<rect class="gray" x="76" y="56" width="8" height="16" fill="rgb(0,0,0)"/>
<rect class="gray" x="76" y="40" width="8" height="16" fill="rgb(0,0,0)"/>
<rect class="gray" x="76" y="24" width="8" height="16" fill="rgb(0,0,0)"/>
<rect class="gray" x="76" y="8" width="8" height="16" fill="rgb(0,0,0)"/>
<rect class="gray" x="68" y="72" width="8" height="16" fill="rgb(0,0,0)"/>
<rect class="gray" x="68" y="56" width="8" height="16" fill="rgb(0,0,0)"/>
<rect class="gray" x="68" y="40" width="8" height="16" fill="rgb(0,0,0)"/>
<rect class="gray" x="68" y="24" width="8" height="16" fill="rgb(0,0,0)"/>
<rect class="gray" x="68" y="8" width="8" height="16" fill="rgb(0,0,0)"/>
<rect class="gray" x="60" y="24" width="8" height="16" fill="rgb(0,0,0)"/>
<rect class="gray" x="60" y="8" width="8" height="16" fill="rgb(0,0,0)"/>
<rect class="gray" x="52" y="40" width="8" height="16" fill="rgb(0,0,0)"/>
<rect class="gray" x="52" y="24" width="8" height="16" fill="rgb(0,0,0)"/>
<rect class="gray" x="44" y="56" width="8" height="16" fill="rgb(0,0,0)"/>
<rect class="gray" x="44" y="40" width="8" height="16" fill="rgb(0,0,0)"/>
<rect class="gray" x="36" y="56" width="8" height="16" fill="rgb(0,0,0)"/>
<rect class="gray" x="36" y="40" width="8" height="16" fill="rgb(0,0,0)"/>
<rect class="gray" x="28" y="40" width="8" height="16" fill="rgb(0,0,0)"/>
<rect class="gray" x="28" y="24" width="8" height="16" fill="rgb(0,0,0)"/>
<rect class="gray" x="20" y="24" width="8" height="16" fill="rgb(0,0,0)"/>
<rect class="gray" x="20" y="8" width="8" height="16" fill="rgb(0,0,0)"/>
<rect class="gray" x="12" y="72" width="8" height="16" fill="rgb(0,0,0)"/>
<rect class="gray" x="12" y="56" width="8" height="16" fill="rgb(0,0,0)"/>
<rect class="gray" x="12" y="40" width="8" height="16" fill="rgb(0,0,0)"/>
<rect class="gray" x="12" y="24" width="8" height="16" fill="rgb(0,0,0)"/>
<rect class="gray" x="12" y="8" width="8" height="16" fill="rgb(0,0,0)"/>
<rect class="gray" x="4" y="72" width="8" height="16" fill="rgb(0,0,0)"/>
<rect class="gray" x="4" y="56" width="8" height="16" fill="rgb(0,0,0)"/>
<rect class="gray" x="4" y="40" width="8" height="16" fill="rgb(0,0,0)"/>
<rect class="gray" x="4" y="24" width="8" height="16" fill="rgb(0,0,0)"/>
<rect class="gray" x="4" y="8" width="8" height="16" fill="rgb(0,0,0)"/>
<g class="text">
<text x="32" y="20">╗</text>
<text x="88" y="20">╗</text>
<text x="40" y="36">╗</text>
<text x="24" y="52">╔</text>
<text x="64" y="52">╔</text>
<text x="32" y="68">╚</text>
<text x="56" y="68">╔</text>
<text x="64" y="68">╝</text>
<text x="40" y="84">╚</text>
<text x="48" y="84">═</text>
<text x="56" y="84">╝</text>
<text x="8" y="100">╚</text>
<text x="16" y="100">═</text>
<text x="24" y="100">╝</text>
<text x="72" y="100">╚</text>
<text x="80" y="100">═</text>
<text x="88" y="100">╝</text>
</g>
</svg>
